<?xml version="1.0" standalone="no"?>
<!DOCTYPE svg PUBLIC "-//W3C//DTD SVG 20010904//EN"
 "http://www.w3.org/TR/2001/REC-SVG-20010904/DTD/svg10.dtd">
<svg version="1.0" xmlns="http://www.w3.org/2000/svg"
 width="1080.000000pt" height="1080.000000pt" viewBox="0 0 1080.000000 1080.000000"
 preserveAspectRatio="xMidYMid meet">

<g transform="translate(0.000000,1080.000000) scale(0.100000,-0.100000)"
fill="#000000" stroke="none">
<path d="M6845 8443 c-161 -81 -258 -186 -294 -320 -10 -36 -22 -49 -89 -96
-78 -56 -149 -120 -235 -215 l-49 -52 -30 25 c-41 35 -181 100 -248 116 -78
19 -205 16 -264 -4 -27 -10 -98 -25 -159 -34 -123 -18 -203 -11 -325 27 -76
24 -124 25 -228 5 -83 -16 -176 -55 -248 -104 -25 -17 -48 -31 -51 -31 -4 0
-51 44 -104 99 -53 54 -132 124 -177 154 -70 49 -82 62 -93 99 -35 114 -108
209 -215 276 -74 47 -146 85 -152 79 -5 -5 23 -465 37 -592 5 -55 17 -136 26
-180 24 -124 6 -275 -33 -275 -15 0 -16 -9 -10 -72 16 -172 52 -285 125 -393
50 -73 12 -50 -91 56 -172 174 -300 270 -487 364 -96 48 -264 107 -340 120
-39 6 -59 21 -160 119 -64 61 -145 136 -181 166 -78 65 -309 280 -477 444
l-123 119 0 -34 c0 -19 4 -70 10 -114 18 -151 31 -358 22 -367 -7 -7 -121 32
-442 152 -41 15 -119 44 -173 64 l-97 36 64 -86 c76 -101 140 -227 189 -374
35 -103 77 -286 77 -332 0 -19 -25 -41 -122 -108 -226 -157 -381 -299 -420
-386 -19 -43 -20 -61 -15 -218 3 -94 8 -181 12 -193 6 -20 -2 -26 -81 -65
-209 -102 -380 -225 -460 -328 -10 -14 -46 -46 -79 -70 -145 -107 -215 -214
-215 -330 0 -86 32 -152 109 -222 36 -34 73 -82 102 -133 41 -74 89 -129 205
-236 22 -19 74 -72 117 -117 43 -45 105 -98 137 -118 l58 -35 -5 -63 c-10
-113 18 -141 242 -243 148 -67 151 -68 235 -67 51 0 111 7 150 18 87 24 266
110 364 174 134 88 272 117 322 67 14 -14 34 -25 46 -25 25 0 83 -42 100 -73
19 -36 25 -91 17 -148 -5 -42 -20 -73 -62 -136 -73 -109 -99 -178 -104 -283
-6 -101 16 -172 72 -237 19 -23 35 -51 35 -63 0 -46 -89 -370 -128 -467 l-22
-53 51 -40 c289 -228 871 -459 1449 -573 365 -73 508 -87 885 -87 176 0 374
-6 440 -12 150 -15 173 -15 318 0 65 7 245 15 400 17 372 6 419 10 677 51 624
100 1203 302 1575 550 165 109 152 91 120 171 -40 98 -125 412 -125 460 0 8
14 31 31 51 56 63 79 127 79 217 0 119 -28 197 -118 325 -42 61 -46 70 -50
142 -3 50 0 89 8 108 17 40 62 77 110 90 22 6 40 15 40 19 0 19 61 33 111 27
73 -10 137 -37 229 -95 210 -135 410 -203 548 -186 58 7 313 118 369 161 51
39 66 77 60 151 -5 63 -5 64 27 80 17 8 61 40 98 69 37 30 71 54 76 54 11 0
63 55 100 108 17 24 47 56 68 73 49 39 119 130 156 204 19 38 52 80 90 114 79
72 108 130 108 218 -1 117 -59 211 -200 322 -48 39 -100 86 -115 105 -60 79
-235 202 -415 292 -101 50 -111 58 -105 77 4 12 10 100 12 195 5 170 5 173
-21 226 -33 67 -162 192 -310 301 -206 152 -191 138 -188 171 14 127 84 367
147 500 37 80 67 127 174 275 15 21 20 23 -264 -86 -156 -60 -190 -73 -246
-91 -26 -8 -86 -30 -134 -49 -55 -22 -92 -32 -97 -27 -9 9 3 224 17 335 3 17
7 73 11 122 l7 90 -144 -140 c-151 -147 -316 -302 -586 -548 l-161 -148 -125
-34 c-194 -53 -397 -156 -552 -280 -38 -31 -125 -110 -192 -177 -68 -67 -123
-117 -123 -111 0 6 17 40 38 74 64 106 93 202 108 347 5 58 4 76 -9 90 -8 9
-23 53 -32 97 -17 74 -17 85 -2 170 9 49 21 131 26 180 13 112 43 583 39 595
-2 5 -34 -7 -73 -27z m-2222 -1838 c181 -46 269 -87 283 -129 8 -23 -9 -38
-81 -72 -91 -43 -182 -24 -239 51 -32 41 -86 156 -79 168 6 10 6 10 116 -18z
m1547 -35 c0 -5 18 -19 41 -30 l40 -21 -7 -47 c-3 -26 -12 -53 -18 -61 -16
-20 -70 -41 -105 -41 -38 0 -129 34 -160 61 -21 17 -23 23 -12 43 16 29 57 53
140 82 75 27 81 28 81 14z m2889 -82 c44 -21 161 -130 161 -150 0 -20 -93
-107 -121 -113 -46 -10 -95 12 -142 65 -40 45 -117 175 -117 198 0 36 144 36
219 0z m-7087 -6 c11 -11 5 -28 -27 -89 -73 -139 -152 -204 -226 -188 -33 8
-119 87 -119 110 0 28 105 128 165 157 52 25 69 29 127 26 37 -2 73 -9 80 -16z
m297 -977 c11 -44 18 -81 17 -83 -6 -5 -231 278 -231 290 0 7 9 14 21 16 16 2
37 -19 94 -97 41 -55 76 -99 78 -97 2 3 -28 47 -67 100 l-70 95 52 3 52 3 17
-75 c10 -41 27 -111 37 -155z m141 173 c18 -35 44 -83 58 -108 l25 -45 -41 39
c-23 22 -40 41 -38 44 6 5 -24 91 -34 97 -4 3 0 -18 11 -45 10 -28 16 -50 11
-50 -4 1 -38 29 -76 64 l-68 63 59 2 60 2 33 -63z m115 47 c71 -12 133 -44
155 -82 11 -19 17 -33 12 -31 -4 1 -60 29 -125 61 -110 55 -140 75 -99 64 9
-3 35 -8 57 -12z m5885 10 c0 -3 -54 -32 -120 -65 -66 -33 -120 -55 -120 -49
0 6 15 26 33 44 32 32 108 62 127 50 6 -3 10 -2 10 4 0 5 12 12 28 14 15 2 30
5 35 6 4 0 7 -1 7 -4z m164 -26 c-16 -17 -41 -40 -56 -50 l-27 -19 9 27 c4 16
11 37 16 47 5 13 4 17 -4 12 -10 -6 -28 -71 -25 -87 1 -3 -23 -30 -53 -60 -29
-29 -54 -50 -54 -45 0 4 24 52 53 107 l52 99 59 0 60 0 -30 -31z m162 21 c24
0 44 -5 44 -10 0 -6 -11 -29 -25 -53 l-26 -42 26 30 c14 17 28 38 31 48 3 9
12 17 21 17 18 0 17 -2 -57 -90 -25 -30 -72 -89 -105 -130 -74 -95 -79 -100
-71 -74 3 11 20 83 36 159 29 135 41 160 68 150 8 -3 34 -5 58 -5z m-6702 -52
c7 -55 21 -358 15 -358 -2 0 -54 65 -114 144 l-110 144 -3 -204 c-1 -112 -5
-204 -8 -204 -7 0 -184 142 -184 147 0 2 16 28 35 58 19 30 51 81 71 113 93
146 133 174 285 201 4 1 9 -18 13 -41z m6912 16 c38 -10 62 -25 92 -58 43 -47
192 -267 192 -284 0 -5 -39 -42 -87 -81 l-88 -71 -3 206 c-2 173 -5 205 -17
201 -9 -4 -15 2 -18 16 -2 12 -3 7 -1 -10 2 -26 -7 -46 -50 -100 -28 -38 -76
-99 -105 -137 l-53 -70 6 125 c4 68 9 161 12 207 l6 83 31 -6 c18 -4 55 -13
83 -21z m-6328 -129 c40 -19 72 -38 72 -43 0 -5 -12 -32 -26 -62 l-26 -54 -49
95 c-27 51 -49 95 -49 97 0 5 9 1 78 -33z m5694 8 c-11 -16 -34 -56 -51 -90
-17 -35 -33 -63 -36 -63 -6 0 -57 101 -53 105 11 10 135 74 146 74 9 1 8 -7
-6 -26z m-5759 -251 c-25 -20 -143 -65 -152 -57 -4 4 -60 265 -61 283 0 7 54
-36 120 -95 l121 -108 -28 -23z m5943 93 l-32 -140 -38 2 c-36 3 -118 41 -131
62 -4 8 225 225 231 218 1 -1 -12 -65 -30 -142z m-5631 65 c32 -33 57 -61 54
-63 -2 -2 -44 -37 -94 -77 -49 -41 -92 -75 -94 -77 -2 -1 4 -14 13 -27 9 -14
16 -29 16 -33 0 -4 -11 9 -25 29 l-25 37 35 46 c42 56 50 81 50 163 0 34 2 62
5 62 3 0 32 -27 65 -60z m5202 24 c-9 -55 11 -128 49 -184 l34 -49 -21 -36
c-12 -19 -23 -35 -26 -35 -3 0 4 15 15 34 l20 34 -28 39 c-16 21 -41 71 -57
111 l-29 72 -30 -32 c-17 -18 -38 -44 -47 -58 -10 -13 -17 -20 -17 -14 0 18
122 152 139 154 2 0 1 -16 -2 -36z m-5853 -119 c47 -57 86 -107 86 -110 0 -3
-8 -5 -19 -5 -12 0 -37 27 -71 78 -29 42 -56 80 -60 84 -3 5 -1 -28 6 -72 6
-44 14 -84 18 -88 4 -4 5 4 2 18 -2 14 -7 45 -11 70 l-6 45 41 -60 c22 -33 40
-62 40 -65 0 -5 -104 -40 -106 -37 -3 5 -13 247 -10 247 2 0 42 -47 90 -105z
m6526 76 c0 -23 -11 -38 -52 -71 -29 -23 -57 -49 -62 -58 -5 -9 16 5 47 32
l57 48 0 -82 0 -82 -27 7 c-16 5 -51 13 -80 19 l-51 11 21 27 c12 15 49 61 81
102 33 42 61 76 63 76 2 0 3 -13 3 -29z m-6757 -184 c31 -41 57 -77 57 -80 0
-3 -34 -26 -75 -50 l-75 -45 0 146 c0 141 1 146 18 125 9 -12 43 -55 75 -96z
m6989 -32 c-2 -90 -7 -143 -13 -140 -5 4 -7 10 -5 14 3 4 -1 8 -8 8 -8 0 -37
15 -66 33 -37 24 -49 37 -45 49 7 19 128 180 135 181 3 0 4 -65 2 -145z
m-6035 113 c-3 -8 -6 -5 -6 6 -1 11 2 17 5 13 3 -3 4 -12 1 -19z m10 -50 c-3
-7 -5 -2 -5 12 0 14 2 19 5 13 2 -7 2 -19 0 -25z m1587 13 c13 -14 16 -33 14
-82 l-3 -64 -21 83 c-11 45 -17 82 -14 82 4 0 15 -8 24 -19z m1771 -49 c-17
-83 -29 -93 -20 -17 6 51 21 92 31 83 1 -2 -3 -32 -11 -66z m-4675 -101 c11
-63 18 -116 17 -118 -2 -1 -36 30 -75 70 l-72 73 38 37 39 38 6 -52 c4 -29 5
-55 3 -57 -3 -2 -15 2 -28 9 -20 11 -22 11 -10 -3 7 -9 22 -18 32 -21 23 -6
24 6 11 85 -5 29 -4 54 3 65 8 14 11 15 13 3 2 -8 12 -67 23 -129z m7660 60
c-13 -41 -20 -117 -9 -100 5 7 9 28 9 44 0 17 3 40 6 52 l6 22 32 -25 32 -26
-75 -73 c-42 -41 -76 -73 -77 -72 -1 1 9 58 22 127 13 69 23 127 24 130 0 3 9
-8 19 -24 14 -21 17 -35 11 -55z m-6367 21 c-19 -26 -88 -72 -108 -71 -5 0 12
11 38 25 27 14 56 38 65 54 9 16 19 27 21 24 3 -2 -4 -17 -16 -32z m2423 -5
c-14 -18 -34 -52 -44 -76 l-20 -43 -26 44 c-14 25 -26 50 -26 56 0 6 19 16 43
22 23 6 53 15 67 20 14 5 26 9 28 9 2 1 -8 -14 -22 -32z m2604 3 c6 -11 8 -20
6 -20 -3 0 -10 9 -16 20 -6 11 -8 20 -6 20 3 0 10 -9 16 -20z m-2371 -11 c23
-7 41 -18 41 -25 0 -6 -11 -32 -25 -55 -14 -24 -25 -37 -25 -28 0 10 -14 43
-30 74 -19 36 -25 55 -16 52 8 -3 32 -11 55 -18z m647 -37 c1 -32 8 -71 16
-87 14 -26 13 -33 -8 -89 -13 -33 -24 -67 -24 -76 0 -9 -3 -20 -7 -24 -11 -11
-31 125 -32 213 -1 64 2 78 21 98 12 13 24 23 27 23 3 0 7 -26 7 -58z m-3510
16 c24 -27 25 -29 3 -10 l-26 23 -59 -40 c-106 -71 -130 -79 -261 -90 -67 -6
-143 -10 -170 -10 l-48 1 40 8 c34 7 168 29 215 34 8 2 28 8 43 14 16 7 33 12
38 12 17 0 133 52 159 71 33 24 32 24 66 -13z m1929 12 c26 -28 29 -100 11
-215 -9 -54 -19 -101 -21 -103 -2 -3 -9 8 -15 23 -9 25 -6 62 15 185 3 16 -5
7 -21 -24 -33 -62 -54 -49 -25 15 12 24 21 65 21 92 0 51 8 57 35 27z m3597
-14 c35 -19 92 -44 128 -56 70 -23 67 -23 185 -40 44 -6 100 -15 125 -20 l45
-8 -45 -1 c-82 -2 -364 20 -453 35 -80 13 -203 51 -195 59 2 2 34 -5 71 -15
37 -10 100 -22 140 -25 l72 -6 -40 19 c-22 10 -54 31 -71 45 -31 26 -31 26
-49 7 -10 -11 -21 -18 -24 -15 -4 4 36 52 46 54 1 1 31 -14 65 -33z m-222 -23
c0 -7 -39 17 -46 28 -3 6 5 3 20 -6 14 -10 26 -19 26 -22z m-2854 1 c-3 -9 -6
-28 -6 -42 l0 -27 -20 25 c-24 31 -25 47 -2 53 31 8 34 7 28 -9z m558 -7 c18
-13 18 -15 0 -42 l-18 -28 -12 34 c-7 19 -13 37 -13 42 -1 12 24 8 43 -6z
m-3946 -58 c34 -28 62 -55 62 -60 0 -5 -21 -22 -47 -39 l-48 -29 -8 27 c-17
60 -34 152 -28 152 3 0 34 -23 69 -51z m3281 -39 c-18 -57 -32 -124 -36 -179
l-6 -88 -27 31 c-15 17 -61 76 -103 131 -74 97 -91 131 -43 86 l24 -23 53 35
c85 54 153 96 160 96 4 1 -6 -40 -22 -89z m4098 68 c-3 -13 -11 -52 -18 -88
-6 -36 -13 -67 -15 -69 -2 -2 -27 11 -55 30 l-52 33 39 34 39 34 6 -59 6 -58
0 62 c0 47 4 68 18 83 24 26 38 25 32 -2z m-7688 -96 c49 -143 49 -139 9 -144
-37 -6 -45 -1 -142 89 l-63 59 74 39 c40 21 73 42 73 47 0 4 3 8 8 8 4 0 22
-44 41 -98z m1268 92 c-3 -3 -12 -4 -19 -1 -8 3 -5 6 6 6 11 1 17 -2 13 -5z
m3125 -42 c10 -8 16 -17 14 -21 -2 -3 -9 -50 -16 -105 -15 -129 -2 -143 33
-33 35 110 33 123 -4 22 -23 -63 -28 -72 -24 -40 2 22 7 66 11 98 3 31 8 57
11 57 3 0 18 -9 34 -21 l29 -21 49 36 c27 20 54 43 61 51 7 8 17 15 22 15 12
0 -17 -49 -42 -71 -10 -8 -19 -23 -21 -32 -2 -9 -42 -65 -89 -124 l-85 -108
-8 90 c-7 80 -30 187 -52 239 -8 17 -7 17 26 1 19 -10 42 -24 51 -33z m3606
25 c8 -6 9 -14 3 -21 -13 -16 -83 -192 -72 -181 5 6 24 46 41 90 17 44 35 84
40 88 4 5 31 -5 60 -21 l52 -30 -83 -71 c-65 -56 -89 -71 -114 -71 -17 0 -34
3 -37 6 -5 5 41 153 67 216 7 17 15 16 43 -5z m-6781 7 c-3 -3 -12 -4 -19 -1
-8 3 -5 6 6 6 11 1 17 -2 13 -5z m-54 -11 c-7 -2 -19 -2 -25 0 -7 3 -2 5 12 5
14 0 19 -2 13 -5z m-56 -9 c-3 -3 -12 -4 -19 -1 -8 3 -5 6 6 6 11 1 17 -2 13
-5z m2163 -85 c-25 -48 -34 -47 -20 2 6 18 10 47 10 64 l1 30 15 -27 c13 -25
13 -31 -6 -69z m1379 -14 c0 -17 -2 -15 -14 7 -8 15 -12 35 -8 45 6 16 8 15
14 -7 4 -14 7 -34 8 -45z m-1506 5 c-6 -39 -7 -41 -15 -20 -6 16 -5 32 3 47
17 31 19 26 12 -27z m-3408 -18 c8 -37 -11 -88 -28 -75 -6 5 -32 25 -56 43
l-44 34 44 12 c68 19 77 17 84 -14z m8568 7 c86 -21 87 -22 74 -43 -8 -11 -25
-27 -38 -33 -26 -14 -188 -83 -193 -83 -2 0 8 41 22 90 14 50 30 90 36 90 6 0
51 -10 99 -21z m-8169 -36 c29 -32 29 -33 7 -33 -16 0 -26 10 -37 35 -15 38
-18 54 -6 40 4 -6 20 -25 36 -42z m7685 -1 c-7 -21 -18 -32 -30 -32 -26 0 -24
9 8 42 32 33 37 31 22 -10z m-8159 -22 l65 -51 11 33 11 33 17 -54 c9 -30 15
-55 13 -57 -1 -1 -46 16 -100 37 -127 51 -181 109 -102 109 11 0 49 -23 85
-50z m3683 -54 c-3 -5 -2 -6 4 -3 5 3 19 -11 31 -31 11 -20 63 -100 114 -178
80 -121 90 -140 68 -134 -44 13 -194 70 -228 88 -36 17 -112 114 -112 142 0 9
21 59 46 111 l47 94 18 -40 c9 -21 15 -44 12 -49z m1327 -102 c0 -36 -81 -137
-128 -158 -23 -11 -44 -17 -47 -14 -3 2 21 62 52 131 32 70 61 123 65 119 4
-4 12 -29 17 -55 5 -27 12 -51 16 -55 4 -4 4 9 0 28 -12 60 -28 110 -35 110
-4 0 -17 -21 -28 -47 -11 -27 -39 -88 -62 -136 -22 -48 -38 -92 -35 -96 2 -5
-11 -16 -31 -26 -47 -22 -144 -55 -144 -49 0 3 40 61 89 129 49 68 113 162
142 209 l54 86 37 -78 c21 -42 38 -87 38 -98z m-4792 59 c-10 -13 -14 -10 -24
18 -18 51 -17 55 11 24 21 -22 24 -30 13 -42z m8196 30 c-9 -39 -19 -47 -34
-28 -10 12 -8 18 11 35 31 25 31 25 23 -7z m-8001 -54 c5 -20 5 -20 -13 -4
-11 10 -17 22 -14 26 8 13 21 3 27 -22z m7803 3 c-18 -18 -31 -10 -23 12 4 10
13 13 22 9 15 -5 15 -7 1 -21z m-4161 -251 c-7 -13 12 -61 25 -61 6 0 3 11 -6
25 -9 14 -14 28 -11 31 3 3 10 -4 17 -15 6 -12 14 -21 19 -21 4 0 23 27 40 60
29 54 51 76 51 51 0 -5 25 -35 56 -67 l55 -59 20 25 c11 14 33 45 49 69 l29
44 18 -32 c39 -70 53 -91 60 -91 5 0 28 34 52 76 l44 75 13 -28 c10 -24 9 -33
-7 -60 -10 -18 -14 -33 -9 -33 5 0 15 10 21 22 11 21 12 21 30 -13 9 -19 14
-37 11 -40 -26 -25 -254 -51 -266 -31 -3 5 4 21 15 38 l19 29 1 -30 c0 -16 3
-24 6 -17 3 7 2 25 -2 40 -6 26 -7 26 -36 -21 -26 -43 -31 -46 -54 -37 -16 6
-53 6 -104 -2 -44 -6 -87 -7 -98 -3 -10 4 -28 7 -40 6 -29 -3 -133 18 -133 27
0 12 35 92 40 92 3 0 14 -14 25 -30 31 -46 38 -35 12 18 -34 66 -21 86 15 23
16 -29 26 -56 23 -60z m2120 -262 c6 -7 -14 -9 -59 -7 l-70 3 -27 50 c-16 28
-28 53 -29 57 0 7 168 -86 185 -103z m-176 45 c23 -49 18 -70 -15 -61 -16 4
-15 5 4 6 26 1 27 6 3 50 l-19 35 -21 -42 c-25 -50 -25 -49 -3 -55 11 -3 7 -5
-10 -6 l-27 -1 26 60 c15 33 29 60 33 60 3 0 16 -21 29 -46z m-3485 -30 c-32
-78 -40 -82 -127 -67 l-38 6 88 48 c48 27 89 48 90 49 1 0 -5 -16 -13 -36z
m58 -16 c44 -82 44 -81 -3 -75 -59 8 -65 18 -43 71 11 25 20 46 21 46 2 0 13
-19 25 -42z m3122 -49 c-2 -5 -18 -18 -34 -29 l-30 -21 0 45 0 46 35 -17 c19
-9 32 -20 29 -24z m486 14 c-1 -5 -14 -33 -29 -63 l-28 -54 -26 50 c-19 38
-23 54 -14 63 12 12 97 16 97 4z m-3211 -41 c-2 -24 -2 -24 -6 -4 -5 26 -16
28 -33 7 -11 -13 -8 -17 19 -28 17 -6 31 -15 31 -19 0 -5 -19 1 -41 13 l-42
21 29 23 c34 27 45 24 43 -13z m-585 0 c-9 -5 -5 -20 11 -52 l24 -45 12 35
c16 43 15 44 -13 52 -22 6 -22 6 3 7 15 1 29 -5 32 -11 4 -13 -30 -105 -36
-97 -2 2 -18 30 -35 62 -32 56 -32 57 -10 57 14 0 18 -3 12 -8z m3284 -68
c-22 -41 -41 -74 -43 -72 -4 4 11 97 16 101 2 2 17 13 33 25 16 12 30 22 31
22 1 0 -15 -34 -37 -76z m-2690 -17 c5 -7 13 -30 17 -52 l7 -40 -44 60 c-24
33 -47 66 -52 73 -9 14 58 -23 72 -41z m2604 -9 l-33 -21 28 -18 c15 -11 25
-19 21 -19 -14 0 -58 23 -58 31 0 11 50 49 64 49 6 0 -4 -10 -22 -22z m-2524
-65 l-33 -24 -6 28 c-15 63 -13 65 31 42 l41 -21 -33 -25z m3836 -95 c-2 -3
-29 -12 -60 -19 l-55 -13 -24 30 c-13 16 -30 41 -39 55 l-15 26 98 -36 c55
-19 97 -39 95 -43z m-5060 22 c-20 -27 -41 -50 -47 -50 -5 0 -35 8 -65 17
l-54 17 93 32 c52 18 97 33 101 33 5 1 -8 -21 -28 -49z m4884 -2 c27 -40 32
-68 11 -68 -4 0 -6 7 -3 15 3 8 -4 29 -17 46 l-23 32 -12 -39 c-6 -21 -12 -34
-13 -29 -1 13 19 85 24 85 2 0 17 -19 33 -42z m-4811 -32 c13 -39 16 -63 9
-60 -6 2 -12 14 -13 27 0 12 -6 35 -13 52 l-11 30 -19 -25 c-27 -34 -25 -47 8
-58 15 -6 21 -11 14 -11 -19 -1 -52 18 -52 29 0 12 43 80 50 80 3 0 15 -29 27
-64z m-208 -56 c7 -27 16 -50 21 -50 8 0 40 44 40 55 0 3 -15 13 -32 21 l-33
15 30 -6 c54 -11 56 -29 7 -93 l-18 -23 -21 66 c-12 36 -18 65 -14 65 4 0 13
-22 20 -50z m5202 19 c-8 -19 -10 -20 -10 -5 -1 15 -6 17 -28 11 -44 -10 -48
-21 -22 -59 l24 -35 12 32 c6 17 12 27 12 21 1 -6 -4 -26 -10 -43 l-11 -33
-29 44 c-16 24 -29 48 -29 55 0 10 89 45 98 38 1 -1 -2 -13 -7 -26z m-238 -3
c3 -8 0 -17 -7 -19 -10 -4 -12 1 -9 14 6 23 9 24 16 5z m44 -2 c-3 -3 -12 -4
-19 -1 -8 3 -5 6 6 6 11 1 17 -2 13 -5z m-1595 -121 c-9 -16 -110 -58 -119
-49 -4 3 121 73 125 70 2 -1 -1 -11 -6 -21z m-1541 -8 c111 -38 108 -36 65
-51 -60 -21 -99 -10 -125 37 -12 21 -21 39 -18 39 2 0 37 -11 78 -25z m-86
-33 c-22 -5 -27 1 -19 23 7 17 8 17 21 -1 12 -17 12 -19 -2 -22z m182 -38 c-3
-3 -12 -4 -19 -1 -8 3 -5 6 6 6 11 1 17 -2 13 -5z"/>
<path d="M6145 6550 c-3 -5 -2 -10 4 -10 5 0 13 5 16 10 3 6 2 10 -4 10 -5 0
-13 -4 -16 -10z"/>
<path d="M2541 5706 c10 -9 129 -66 129 -61 0 5 -116 65 -126 65 -4 0 -5 -2
-3 -4z"/>
<path d="M8253 5685 c-29 -13 -53 -26 -53 -29 0 -5 111 42 119 50 11 11 -19 1
-66 -21z"/>
<path d="M8675 5658 c-3 -35 -8 -76 -11 -93 -3 -21 -2 -25 4 -15 10 16 26 170
18 170 -2 0 -7 -28 -11 -62z"/>
<path d="M1895 5568 c120 -110 109 -108 123 -26 7 39 11 73 8 75 -2 2 -9 -26
-16 -62 l-12 -65 -78 70 c-43 38 -81 70 -85 70 -4 0 23 -28 60 -62z"/>
<path d="M1780 5429 l0 -141 -65 36 c-36 20 -65 32 -65 28 0 -4 32 -23 70 -43
l70 -36 0 148 c0 82 -2 149 -5 149 -3 0 -5 -63 -5 -141z"/>
<path d="M8918 5596 c-23 -47 -45 -83 -49 -81 -3 3 -10 28 -14 57 -4 29 -9 48
-11 43 -2 -6 2 -41 8 -78 l13 -68 52 105 c29 58 51 106 48 106 -3 0 -24 -38
-47 -84z"/>
<path d="M9107 5423 c-26 -19 -46 -38 -43 -40 5 -5 96 65 96 73 0 7 -4 4 -53
-33z"/>
<path d="M2606 5520 c20 -27 41 -53 47 -57 6 -4 1 7 -11 24 -29 40 -28 47 3
27 14 -9 25 -14 25 -11 0 7 -85 67 -94 67 -3 0 10 -22 30 -50z"/>
<path d="M8232 5519 c-24 -11 -42 -23 -39 -25 5 -6 87 33 87 41 0 7 1 7 -48
-16z"/>
<path d="M2394 5450 c3 -14 10 -56 16 -95 14 -87 23 -99 15 -19 l-6 59 30 -55
c17 -30 30 -50 30 -45 0 6 -20 48 -45 95 -25 47 -43 74 -40 60z"/>
<path d="M8397 5416 c-55 -33 -70 -52 -17 -22 25 14 48 26 52 26 3 0 9 -18 13
-41 4 -22 9 -39 11 -36 6 6 -8 97 -15 96 -3 0 -23 -11 -44 -23z"/>
<path d="M1911 5283 c-1 -34 4 -65 9 -68 6 -3 10 -17 10 -30 0 -13 4 -26 9
-29 5 -4 7 2 4 12 -2 10 -10 54 -18 97 l-13 80 -1 -62z"/>
<path d="M8903 5247 c-17 -7 -35 -15 -39 -20 -4 -4 12 -1 35 8 24 8 45 15 48
15 2 0 -9 -21 -24 -47 -15 -26 -22 -43 -15 -39 11 7 52 78 52 91 0 8 -21 5
-57 -8z"/>
<path d="M5306 5243 c-12 -12 -37 -76 -31 -81 2 -3 9 7 15 22 5 15 15 36 20
47 11 20 9 25 -4 12z"/>
<path d="M5565 5193 c8 -18 18 -33 20 -33 10 0 4 16 -16 40 l-20 25 16 -32z"/>
<path d="M5591 5204 c0 -11 3 -14 6 -6 3 7 2 16 -1 19 -3 4 -6 -2 -5 -13z"/>
<path d="M6197 5130 c3 -36 9 -81 14 -100 7 -28 7 -25 4 20 -4 41 -3 49 5 33
5 -13 12 -23 14 -23 4 0 -10 46 -36 120 -3 8 -3 -14 -1 -50z"/>
<path d="M1746 5087 c-9 -33 -6 -45 4 -20 8 20 13 21 36 13 15 -6 29 -8 32 -6
3 3 -4 8 -14 11 -10 4 -26 10 -35 15 -13 7 -18 4 -23 -13z"/>
<path d="M5044 5136 c-3 -8 -4 -23 -2 -33 3 -11 6 -6 9 15 6 34 2 42 -7 18z"/>
<path d="M4930 5074 c0 -15 74 -214 78 -210 3 4 -66 207 -74 215 -2 2 -4 0 -4
-5z"/>
<path d="M1410 5072 l-5 -64 -43 32 c-24 17 -45 30 -47 28 -2 -2 19 -21 47
-41 28 -21 52 -36 55 -34 2 3 3 36 1 73 l-4 69 -4 -63z"/>
<path d="M9500 5013 l-55 -58 58 55 c53 50 62 60 54 60 -1 0 -27 -26 -57 -57z"/>
<path d="M9712 4999 c-1 -15 -4 -42 -7 -60 -5 -31 -5 -32 5 -9 6 13 9 40 7 60
-3 25 -4 28 -5 9z"/>
<path d="M9800 4968 l-23 -33 28 27 c16 15 26 30 23 33 -3 4 -16 -9 -28 -27z"/>
<path d="M4821 4875 c-2 -29 31 -236 36 -231 4 4 -24 221 -32 241 -2 6 -4 1
-4 -10z"/>
<path d="M5315 4593 c4 -10 7 -29 7 -43 -1 -21 0 -22 7 -6 7 19 8 19 14 1 4
-10 10 -16 13 -13 2 3 -5 22 -17 42 -22 37 -37 49 -24 19z"/>
<path d="M3662 4315 c-7 -14 -12 -30 -12 -35 0 -9 59 -25 66 -17 6 6 -27 77
-36 77 -4 0 -12 -11 -18 -25z"/>
<path d="M6770 4275 c0 -23 2 -24 20 -13 24 15 25 24 4 32 -23 9 -24 8 -24
-19z"/>
<path d="M7217 4284 c-3 -4 3 -25 15 -48 l21 -41 15 35 c7 19 19 41 24 48 8 9
1 12 -29 12 -22 0 -42 -3 -46 -6z"/>
<path d="M4154 4124 c3 -9 6 -20 6 -25 0 -6 9 -5 21 1 20 11 20 12 2 25 -24
19 -36 19 -29 -1z"/>
</g>
</svg>
